<svg xmlns="http://www.w3.org/2000/svg" width="24" height="25" viewBox="0 0 24 25" fill="none">
  <g clip-path="url(#clip0_348_33517)">
    <path d="M12.2791 0.337158V3.686H13.3953V0.337158H12.2791ZM21.4884 3.686C21.2121 5.08972 20.3805 5.92134 18.9767 6.19762C20.3805 6.4739 21.2121 7.30553 21.4884 8.70925C21.7647 7.30553 22.5963 6.4739 24 6.19762C22.5963 5.92134 21.7647 5.08972 21.4884 3.686ZM11.1628 4.24413V6.6246C11.707 6.52693 12.2651 6.47669 12.8372 6.47669C13.4093 6.47669 13.9674 6.52693 14.5116 6.6246V4.24413H11.1628ZM2.51163 6.47669C2.23535 7.88041 1.40372 8.71204 0 8.98832C1.40372 9.2646 2.23535 10.0962 2.51163 11.4999C2.78791 10.0962 3.61953 9.2646 5.02326 8.98832C3.61953 8.71204 2.78791 7.88041 2.51163 6.47669ZM12.6447 7.03483C12.4716 7.52041 12.3098 8.27948 12.1647 8.70925H13.507C13.3619 8.27948 13.2 7.52041 13.027 7.03483H12.6419H12.6447ZM11.3553 7.15762C11.3107 7.166 11.2688 7.166 11.2242 7.17437C10.8614 7.60134 10.5265 8.34088 10.2223 8.70925H10.9814C11.093 8.34925 11.2214 7.59018 11.3553 7.15762ZM14.3191 7.15762C14.453 7.59018 14.5814 8.34925 14.693 8.70925H15.4521C15.1451 8.34088 14.813 7.60134 14.4502 7.17437C14.4056 7.166 14.3637 7.1632 14.3191 7.15762ZM9.49674 7.68227C8.82977 7.95297 8.19907 8.29623 7.6214 8.71204H8.83256C9.03907 8.41623 9.25953 8.05065 9.49674 7.68227ZM16.1777 7.68227C16.4121 8.05065 16.6353 8.41623 16.8419 8.71204H18.053C17.4754 8.29623 16.8474 7.95297 16.1777 7.68227ZM6.35721 9.82832C5.73488 10.4869 5.20744 11.2376 4.80558 12.0609H7.25581C7.48465 11.2823 7.77488 10.5344 8.14605 9.82832H6.35721ZM9.43535 9.82832C9.01954 10.5176 8.68186 11.2711 8.42512 12.0609H10.2837C10.3842 11.2851 10.5209 10.5316 10.6856 9.82832H9.43814H9.43535ZM11.8409 9.82832C11.6707 10.5176 11.5312 11.2711 11.4223 12.0609H14.2465C14.1377 11.2711 13.9981 10.5176 13.8279 9.82832H11.8409ZM14.9888 9.82832C15.1535 10.5316 15.2902 11.2851 15.3907 12.0609H17.2493C16.9926 11.2711 16.6549 10.5176 16.2391 9.82832H14.9916H14.9888ZM17.5256 9.82832C17.8967 10.5344 18.187 11.2823 18.4158 12.0609H20.866C20.4642 11.2376 19.9367 10.4869 19.3144 9.82832H17.5256ZM4.34791 13.1772C4.11628 13.886 3.96837 14.6339 3.92093 15.4097H6.71163C6.73953 14.6618 6.82605 13.9083 6.97395 13.1772H4.34791ZM8.11535 13.1772C7.95349 13.9055 7.8586 14.6562 7.82791 15.4097H10.0521C10.0633 14.6562 10.1023 13.9083 10.1665 13.1772H8.11814H8.11535ZM11.2912 13.1772C11.2214 13.9083 11.1823 14.6562 11.1684 15.4097H14.5005C14.4865 14.6562 14.4474 13.9083 14.3777 13.1772H11.2912ZM15.5023 13.1772C15.5665 13.9083 15.6028 14.6562 15.6167 15.4097H17.8409C17.8074 14.6562 17.7153 13.9055 17.5535 13.1772H15.5051H15.5023ZM18.6949 13.1772C18.8428 13.9083 18.9265 14.6618 18.9572 15.4097H21.7479C21.7005 14.6339 21.5526 13.886 21.3209 13.1772H18.6949ZM3.92093 16.526C3.96837 17.299 4.11628 18.0497 4.34791 18.7586H6.97395C6.82605 18.0246 6.74233 17.2767 6.71163 16.526H3.92093ZM7.82791 16.526C7.8614 17.2823 7.95349 18.0302 8.11535 18.7586H10.1637C10.0995 18.0274 10.0633 17.2795 10.0493 16.526H7.82512H7.82791ZM11.1684 16.526C11.1823 17.2795 11.2214 18.0274 11.2912 18.7586H14.3777C14.4474 18.0274 14.4865 17.2795 14.5005 16.526H11.1684ZM15.6167 16.526C15.6056 17.2795 15.5665 18.0274 15.5023 18.7586H17.5507C17.7126 18.0302 17.8074 17.2823 17.8381 16.526H15.614H15.6167ZM18.9572 16.526C18.9293 17.2767 18.8428 18.0246 18.6949 18.7586H21.3209C21.5554 18.0497 21.7005 17.299 21.7479 16.526H18.9572ZM4.80279 19.8748C5.20465 20.7009 5.7293 21.4488 6.35442 22.1074H8.15163C7.77767 21.4013 7.48186 20.6534 7.25302 19.8748H4.80279ZM8.42233 19.8748C8.67907 20.6646 9.01674 21.4209 9.43256 22.1074H10.68C10.5153 21.4041 10.3786 20.6506 10.2781 19.8748H8.41954H8.42233ZM11.4223 19.8748C11.5312 20.6646 11.6707 21.4181 11.8409 22.1074H13.8279C13.9981 21.4181 14.1377 20.6646 14.2465 19.8748H11.4223ZM15.3907 19.8748C15.2902 20.6506 15.1535 21.4041 14.9888 22.1074H16.2363C16.6549 21.4209 16.9898 20.6646 17.2465 19.8748H15.3879H15.3907ZM18.4158 19.8748C18.187 20.6534 17.8912 21.4013 17.5172 22.1074H19.3144C19.9395 21.4488 20.4642 20.7009 20.866 19.8748H18.4158ZM7.63814 23.2237C8.20744 23.6311 8.82698 23.9772 9.48558 24.2451C9.25395 23.8823 9.03628 23.5167 8.83256 23.2237H7.63814ZM10.2279 23.2237C10.5293 23.5865 10.8642 24.3288 11.2214 24.7502C11.2633 24.7586 11.3023 24.7613 11.3442 24.7669C11.213 24.3372 11.0874 23.5781 10.9786 23.2237H10.2279ZM12.1647 23.2237C12.3098 23.6506 12.4716 24.4041 12.6447 24.8897C12.7088 24.8897 12.773 24.8981 12.8372 24.8981C12.9014 24.8981 12.9656 24.8897 13.0298 24.8897C13.2028 24.4041 13.3647 23.6534 13.5098 23.2237H12.1674H12.1647ZM14.693 23.2237C14.5814 23.5781 14.4586 24.3372 14.3274 24.7669C14.3693 24.7586 14.4084 24.7558 14.4502 24.7502C14.8102 24.3288 15.1423 23.5865 15.4437 23.2237H14.693ZM16.8391 23.2237C16.6353 23.5167 16.4177 23.8795 16.186 24.2451C16.8447 23.9772 17.4642 23.6339 18.0335 23.2237H16.8391Z" fill="url(#paint0_linear_348_33517)"/>
  </g>
  <defs>
    <linearGradient id="paint0_linear_348_33517" x1="24" y1="0.337152" x2="-2.41831" y2="3.29442" gradientUnits="userSpaceOnUse">
      <stop stop-color="#D03696"/>
      <stop offset="1" stop-color="#D73B54"/>
    </linearGradient>
    <clipPath id="clip0_348_33517">
      <rect width="24" height="24.5581" fill="white" transform="translate(0 0.337158)"/>
    </clipPath>
  </defs>
</svg>