<svg width="32" height="32" viewBox="0 0 32 32" fill="none" xmlns="http://www.w3.org/2000/svg">
<rect width="32" height="32" rx="4" fill="#5B3CC5"/>
<path d="M16 6C14.0222 6 12.0888 6.58649 10.4443 7.6853C8.79981 8.78412 7.51809 10.3459 6.76121 12.1732C6.00433 14.0004 5.8063 16.0111 6.19215 17.9509C6.578 19.8907 7.53041 21.6725 8.92894 23.0711C10.3275 24.4696 12.1093 25.422 14.0491 25.8079C15.9889 26.1937 17.9996 25.9957 19.8268 25.2388C21.6541 24.4819 23.2159 23.2002 24.3147 21.5557C25.4135 19.9112 26 17.9778 26 16C26 14.6868 25.7413 13.3864 25.2388 12.1732C24.7363 10.9599 23.9997 9.85752 23.0711 8.92893C22.1425 8.00035 21.0401 7.26375 19.8268 6.7612C18.6136 6.25866 17.3132 6 16 6ZM17 23.93V23C17 22.7348 16.8946 22.4804 16.7071 22.2929C16.5196 22.1054 16.2652 22 16 22C15.7348 22 15.4804 22.1054 15.2929 22.2929C15.1054 22.4804 15 22.7348 15 23V23.93C13.24 23.7068 11.6041 22.9049 10.3496 21.6504C9.0951 20.3959 8.2932 18.76 8.07 17H9C9.26522 17 9.51957 16.8946 9.70711 16.7071C9.89465 16.5196 10 16.2652 10 16C10 15.7348 9.89465 15.4804 9.70711 15.2929C9.51957 15.1054 9.26522 15 9 15H8.07C8.2932 13.24 9.0951 11.6041 10.3496 10.3496C11.6041 9.0951 13.24 8.29319 15 8.07V9C15 9.26522 15.1054 9.51957 15.2929 9.70711C15.4804 9.89464 15.7348 10 16 10C16.2652 10 16.5196 9.89464 16.7071 9.70711C16.8946 9.51957 17 9.26522 17 9V8.07C18.76 8.29319 20.3959 9.0951 21.6504 10.3496C22.9049 11.6041 23.7068 13.24 23.93 15H23C22.7348 15 22.4804 15.1054 22.2929 15.2929C22.1054 15.4804 22 15.7348 22 16C22 16.2652 22.1054 16.5196 22.2929 16.7071C22.4804 16.8946 22.7348 17 23 17H23.93C23.7068 18.76 22.9049 20.3959 21.6504 21.6504C20.3959 22.9049 18.76 23.7068 17 23.93ZM19.14 11.55L14.14 13.67C13.9069 13.771 13.721 13.9569 13.62 14.19L11.5 19.19C11.4212 19.3734 11.3992 19.5761 11.4366 19.7722C11.474 19.9682 11.5692 20.1485 11.71 20.29C11.8946 20.4784 12.1462 20.5862 12.41 20.59C12.5484 20.5901 12.685 20.5594 12.81 20.5L17.81 18.38C18.0431 18.279 18.229 18.0931 18.33 17.86L20.45 12.86C20.5273 12.6768 20.5482 12.4746 20.51 12.2795C20.4718 12.0843 20.3763 11.9049 20.2357 11.7643C20.0951 11.6237 19.9157 11.5282 19.7205 11.49C19.5254 11.4518 19.3232 11.4727 19.14 11.55ZM16.65 16.65L14.37 17.65L15.37 15.37L17.65 14.37L16.65 16.65Z" fill="#F1F1F1"/>
</svg>
