<svg xmlns="http://www.w3.org/2000/svg" width="17" height="24" viewBox="0 0 17 24" fill="none">
  <g clip-path="url(#clip0_755_866)">
    <path d="M13.4784 14.3311C12.6399 14.7398 11.7997 15.0517 10.9718 15.2613C11.0069 15.4869 11.0262 15.7159 11.0262 15.9485C11.0262 17.8496 9.86143 19.3965 8.42833 19.3965C6.99522 19.3965 5.82874 17.8496 5.82874 15.9485C5.82874 15.7282 5.84803 15.5115 5.87785 15.3001C5.02886 15.0904 4.18338 14.7715 3.35194 14.3434C1.68553 14.9231 0.499756 16.5141 0.499756 18.3658V23.2762C0.499756 23.3731 0.578691 23.4524 0.675167 23.4524H16.1815C16.278 23.4524 16.3569 23.3731 16.3569 23.2762V18.3658C16.3569 16.4876 15.1623 14.8984 13.4784 14.3311Z" fill="#F1F1F1"/>
    <path d="M2.6065 13.2527C2.56441 13.2897 2.5416 13.3443 2.54686 13.4007C2.55213 13.4553 2.58195 13.5064 2.63106 13.5346C3.77123 14.2341 4.94473 14.7257 6.11648 14.997C6.12876 14.997 6.14279 15.0005 6.15507 15.0005C6.23225 15.0005 6.30241 14.9494 6.32522 14.8719C6.34977 14.782 6.37433 14.6939 6.4059 14.6076C6.43572 14.5195 6.51817 14.4614 6.60938 14.4614C6.91986 14.4614 7.1742 14.2059 7.1742 13.894V13.4571C7.18824 13.4641 7.20402 13.4712 7.21806 13.4782C7.29524 13.5135 7.36891 13.5452 7.44434 13.5734C7.47065 13.5839 7.49871 13.5945 7.52503 13.6051C7.56362 13.6174 7.60045 13.6298 7.63729 13.6403C7.67412 13.6527 7.70921 13.6615 7.74429 13.6703C7.78814 13.6808 7.83024 13.6914 7.87234 13.6985C7.91795 13.709 7.96355 13.7161 8.00916 13.7214C8.03372 13.7249 8.06003 13.7284 8.08459 13.7302C8.13721 13.7355 8.18808 13.739 8.2407 13.739C8.24947 13.739 8.26 13.7408 8.26877 13.7408H8.27754C8.32841 13.7408 8.37928 13.739 8.42839 13.7337C8.49856 13.7408 8.56872 13.7408 8.64064 13.739C8.65643 13.739 8.67397 13.7372 8.68975 13.7372C8.75816 13.7337 8.82482 13.7267 8.89498 13.7161C8.91603 13.7126 8.93708 13.709 8.95813 13.7038C9.009 13.6949 9.05987 13.6844 9.11249 13.6703C9.13881 13.6632 9.16512 13.6579 9.19143 13.6509C9.25107 13.6333 9.31246 13.6121 9.37386 13.5892C9.41245 13.5751 9.44928 13.561 9.48787 13.5452C9.5212 13.5311 9.55628 13.5152 9.58961 13.4994C9.62119 13.4853 9.651 13.4747 9.68258 13.4588V13.894C9.68258 14.2059 9.93517 14.4614 10.2474 14.4614C10.3386 14.4614 10.4211 14.5195 10.4526 14.6094C10.4772 14.6798 10.4982 14.7538 10.521 14.8367C10.5474 14.9283 10.6403 14.9829 10.7315 14.96C11.8822 14.6851 13.0575 14.2059 14.2222 13.5381C14.2713 13.5099 14.3047 13.4588 14.3099 13.4025C14.3152 13.3461 14.2924 13.2897 14.2503 13.2527C12.6014 11.8009 13.0627 10.4337 13.8924 8.65942C14.6906 6.95742 14.5502 5.03342 13.5065 3.38251C12.4014 1.63294 10.4561 0.547607 8.42839 0.547607C6.40064 0.547607 4.50796 1.59418 3.40112 3.34727C2.35567 5.0017 2.21709 6.93451 3.02223 8.65237C3.79053 10.2927 4.28869 11.7709 2.6065 13.2527ZM4.2466 7.44723C5.88844 7.2587 7.5145 5.66946 8.42839 4.61408C9.33702 5.66946 10.9613 7.2587 12.6102 7.44723V7.76261C12.6102 9.69013 11.7454 11.5172 10.2948 12.6519C10.1194 12.7893 9.94745 12.9074 9.77906 13.0078C9.77555 13.0096 9.77204 13.0096 9.76853 13.0113C9.65627 13.0765 9.54751 13.1329 9.44051 13.1822C9.42473 13.1875 9.41069 13.1946 9.39666 13.2016C9.3493 13.221 9.30194 13.2404 9.25633 13.258C9.23528 13.265 9.21599 13.2721 9.19494 13.2774C9.13354 13.2985 9.07215 13.3179 9.01076 13.332C8.97217 13.3408 8.93357 13.3514 8.89498 13.3584C8.86867 13.3637 8.84236 13.3672 8.81605 13.3708C8.77395 13.376 8.73185 13.3813 8.69151 13.3831C8.67046 13.3848 8.64941 13.3866 8.62836 13.3866C8.56697 13.3884 8.50557 13.3884 8.44418 13.3813H8.4126C8.35296 13.3884 8.29157 13.3884 8.23018 13.3866C8.20737 13.3866 8.18457 13.3848 8.16177 13.3831C8.12318 13.3813 8.08459 13.376 8.04424 13.3708C8.01618 13.3672 7.98811 13.3637 7.96004 13.3584C7.92496 13.3514 7.89163 13.3426 7.85655 13.3355C7.79165 13.3197 7.72324 13.3003 7.65658 13.2774C7.63729 13.2703 7.61975 13.265 7.60045 13.258C7.55485 13.2404 7.50573 13.221 7.45837 13.1998C7.44434 13.1946 7.43206 13.1875 7.41803 13.1822C7.30927 13.1329 7.19876 13.0765 7.0865 13.0113C7.08299 13.0078 7.07948 13.0078 7.07597 13.006C6.90758 12.9074 6.73743 12.7893 6.56202 12.6519C5.11137 11.5172 4.2466 9.69013 4.2466 7.76261V7.44723Z" fill="#F1F1F1"/>
  </g>
  <defs>
    <clipPath id="clip0_755_866">
      <rect width="15.8571" height="22.9048" fill="white" transform="translate(0.499878 0.547607)"/>
    </clipPath>
  </defs>
</svg>