<svg xmlns="http://www.w3.org/2000/svg" width="24" height="25" viewBox="0 0 24 25" fill="none">
  <path d="M10 19.3372V14.3372H14V19.3372C14 19.8872 14.45 20.3372 15 20.3372H18C18.55 20.3372 19 19.8872 19 19.3372V12.3372H20.7C21.16 12.3372 21.38 11.7672 21.03 11.4672L12.67 3.93716C12.29 3.59716 11.71 3.59716 11.33 3.93716L2.97001 11.4672C2.63001 11.7672 2.84001 12.3372 3.30001 12.3372H5.00001V19.3372C5.00001 19.8872 5.45001 20.3372 6.00001 20.3372H9.00001C9.55001 20.3372 10 19.8872 10 19.3372Z" fill="url(#paint0_linear_348_33553)"/>
  <defs>
    <linearGradient id="paint0_linear_348_33553" x1="21.2023" y1="3.68216" x2="1.01761" y2="6.23672" gradientUnits="userSpaceOnUse">
      <stop stop-color="#D03696"/>
      <stop offset="1" stop-color="#D73B54"/>
    </linearGradient>
  </defs>
</svg>