<svg xmlns="http://www.w3.org/2000/svg" width="67" height="67" viewBox="0 0 67 67" fill="none">
  <path d="M33.503 0C24.4051 0 23.2631 0.0398646 19.69 0.202338C16.1236 0.365816 13.6891 0.930286 11.5592 1.75873C9.35555 2.61431 7.48658 3.759 5.62465 5.62158C3.76105 7.48382 2.61635 9.35277 1.75808 11.5554C0.92728 13.686 0.362135 16.1214 0.20167 19.6861C0.0418748 23.2595 0 24.4018 0 33.5C0 42.5982 0.0402 43.7365 0.20234 47.3096C0.36649 50.8759 0.930965 53.3104 1.75875 55.4403C2.61501 57.6439 3.75971 59.5128 5.62231 61.3747C7.4839 63.2383 9.35287 64.3857 11.5548 65.2413C13.6864 66.0697 16.1212 66.6342 19.6869 66.7977C23.2604 66.9601 24.4014 67 33.499 67C42.5979 67 43.7363 66.9601 47.3094 66.7977C50.8758 66.6342 53.3129 66.0697 55.4445 65.2413C57.6471 64.3857 59.5134 63.2383 61.3747 61.3747C63.2383 59.5128 64.3826 57.6439 65.2412 55.4413C66.0647 53.3104 66.6302 50.8753 66.7977 47.3102C66.9581 43.7372 67 42.5982 67 33.5C67 24.4018 66.9581 23.2602 66.7977 19.6867C66.6302 16.1204 66.0647 13.6863 65.2412 11.5564C64.3826 9.35277 63.2383 7.48382 61.3747 5.62158C59.5114 3.75833 57.6478 2.61364 55.4425 1.75907C53.3069 0.930286 50.8711 0.365481 47.3047 0.202338C43.7312 0.0398646 42.5936 0 33.4926 0H33.503ZM30.4977 6.03697C31.3898 6.03563 32.3851 6.03697 33.503 6.03697C42.4479 6.03697 43.5078 6.06913 47.04 6.2296C50.3063 6.37901 52.0791 6.92472 53.26 7.38333C54.8234 7.99034 55.938 8.71628 57.1098 9.8891C58.2823 11.0616 59.0079 12.1781 59.6166 13.7416C60.0752 14.9207 60.6216 16.6936 60.7703 19.9598C60.9308 23.4913 60.9656 24.5519 60.9656 33.4923C60.9656 42.4327 60.9308 43.4936 60.7703 47.0248C60.6209 50.291 60.0752 52.0638 59.6166 53.2434C59.0096 54.8068 58.2823 55.92 57.1098 57.0918C55.9373 58.2643 54.8241 58.9899 53.26 59.5972C52.0804 60.0579 50.3063 60.6022 47.04 60.7516C43.5085 60.9121 42.4479 60.9469 33.503 60.9469C24.5578 60.9469 23.4976 60.9121 19.9663 60.7516C16.7001 60.6009 14.9273 60.0552 13.7454 59.5966C12.1823 58.9892 11.0654 58.2636 9.89288 57.0911C8.72038 55.9186 7.99478 54.8048 7.38608 53.2407C6.92747 52.0612 6.38108 50.2884 6.23234 47.0221C6.07188 43.4906 6.03971 42.43 6.03971 33.4839C6.03971 24.5382 6.07188 23.4829 6.23234 19.9514C6.38175 16.6852 6.92747 14.9124 7.38608 13.7315C7.99344 12.1681 8.72039 11.0515 9.89322 9.87905C11.0657 8.70656 12.1823 7.98063 13.7457 7.37227C14.9266 6.91165 16.7001 6.36728 19.9663 6.2172C23.0567 6.07751 24.2543 6.03563 30.4977 6.0286V6.03697ZM51.3853 11.5993C49.1659 11.5993 47.3653 13.3982 47.3653 15.6179C47.3653 17.8372 49.1659 19.6378 51.3853 19.6378C53.6047 19.6378 55.4053 17.8372 55.4053 15.6179C55.4053 13.3985 53.6047 11.5979 51.3853 11.5979V11.5993ZM33.503 16.2962C24.0024 16.2962 16.2994 23.9992 16.2994 33.5C16.2994 43.0008 24.0024 50.7001 33.503 50.7001C43.004 50.7001 50.7043 43.0008 50.7043 33.5C50.7043 23.9995 43.0033 16.2962 33.5023 16.2962H33.503ZM33.503 22.3332C39.67 22.3332 44.6699 27.3324 44.6699 33.5C44.6699 39.667 39.67 44.6668 33.503 44.6668C27.3357 44.6668 22.3365 39.667 22.3365 33.5C22.3365 27.3324 27.3357 22.3332 33.503 22.3332Z" fill="#F1F1F1"/>
</svg>