<svg width="18" height="19" viewBox="0 0 18 19" fill="none" xmlns="http://www.w3.org/2000/svg">
<g clip-path="url(#clip0_755_417)">
<path d="M4.29812 10.2213C4.26427 10.2504 4.24593 10.2933 4.25017 10.3376C4.2544 10.3805 4.27837 10.4207 4.31786 10.4428C5.23462 10.9925 6.17818 11.3788 7.12033 11.592C7.1302 11.592 7.14148 11.5948 7.15135 11.5948C7.21341 11.5948 7.26983 11.5547 7.28816 11.4937C7.30791 11.4231 7.32765 11.3539 7.35304 11.286C7.37702 11.2168 7.44331 11.1711 7.51665 11.1711C7.76629 11.1711 7.9708 10.9704 7.9708 10.7253V10.3819C7.98208 10.3874 7.99477 10.393 8.00606 10.3985C8.06811 10.4262 8.12735 10.4511 8.188 10.4733C8.20915 10.4816 8.23172 10.4899 8.25287 10.4982C8.2839 10.5079 8.31352 10.5176 8.34314 10.5259C8.37276 10.5356 8.40097 10.5425 8.42917 10.5494C8.46443 10.5577 8.49828 10.566 8.53213 10.5716C8.5688 10.5799 8.60547 10.5854 8.64215 10.5896C8.66189 10.5924 8.68305 10.5951 8.70279 10.5965C8.7451 10.6007 8.78601 10.6034 8.82832 10.6034C8.83537 10.6034 8.84383 10.6048 8.85088 10.6048H8.85794C8.89884 10.6048 8.93974 10.6034 8.97923 10.5993C9.03565 10.6048 9.09206 10.6048 9.14989 10.6034C9.16258 10.6034 9.17669 10.602 9.18938 10.602C9.24438 10.5993 9.29798 10.5937 9.3544 10.5854C9.37132 10.5827 9.38825 10.5799 9.40517 10.5757C9.44607 10.5688 9.48697 10.5605 9.52928 10.5494C9.55044 10.5439 9.5716 10.5397 9.59275 10.5342C9.64071 10.5204 9.69007 10.5037 9.73943 10.4857C9.77046 10.4747 9.80008 10.4636 9.83111 10.4511C9.85791 10.44 9.88612 10.4276 9.91291 10.4151C9.9383 10.404 9.96228 10.3957 9.98766 10.3833V10.7253C9.98766 10.9704 10.1908 11.1711 10.4418 11.1711C10.5152 11.1711 10.5814 11.2168 10.6068 11.2874C10.6266 11.3428 10.6435 11.401 10.6618 11.466C10.683 11.538 10.7577 11.581 10.8311 11.563C11.7563 11.347 12.7013 10.9704 13.6378 10.4456C13.6773 10.4234 13.7041 10.3833 13.7083 10.339C13.7125 10.2947 13.6942 10.2504 13.6603 10.2213C12.3346 9.08036 12.7055 8.00589 13.3726 6.61159C14.0144 5.27405 13.9015 3.76205 13.0623 2.46466C12.1738 1.08974 10.6097 0.236816 8.97923 0.236816C7.34881 0.236816 5.82699 1.05928 4.93703 2.43697C4.09643 3.73712 3.98501 5.25605 4.63238 6.60605C5.25014 7.89512 5.65069 9.05682 4.29812 10.2213ZM5.61684 5.65897C6.93697 5.51082 8.24441 4.26189 8.97923 3.43251C9.70982 4.26189 11.0158 5.51082 12.3416 5.65897V5.90682C12.3416 7.42159 11.6463 8.85743 10.4799 9.74912C10.3389 9.85712 10.2006 9.94989 10.0652 10.0288C10.0624 10.0302 10.0596 10.0302 10.0568 10.0316C9.96651 10.0828 9.87906 10.1271 9.79303 10.1659C9.78034 10.17 9.76905 10.1756 9.75777 10.1811C9.71969 10.1964 9.68161 10.2116 9.64494 10.2254C9.62801 10.231 9.6125 10.2365 9.59557 10.2407C9.54621 10.2573 9.49685 10.2725 9.44748 10.2836C9.41645 10.2905 9.38542 10.2988 9.3544 10.3044C9.33324 10.3085 9.31208 10.3113 9.29093 10.314C9.25708 10.3182 9.22323 10.3224 9.19079 10.3237C9.17386 10.3251 9.15694 10.3265 9.14002 10.3265C9.09065 10.3279 9.04129 10.3279 8.99192 10.3224H8.96654C8.91858 10.3279 8.86922 10.3279 8.81985 10.3265C8.80152 10.3265 8.78318 10.3251 8.76485 10.3237C8.73382 10.3224 8.70279 10.3182 8.67035 10.314C8.64779 10.3113 8.62522 10.3085 8.60265 10.3044C8.57445 10.2988 8.54765 10.2919 8.51944 10.2864C8.46726 10.2739 8.41225 10.2587 8.35865 10.2407C8.34314 10.2351 8.32904 10.231 8.31352 10.2254C8.27685 10.2116 8.23736 10.1964 8.19928 10.1797C8.188 10.1756 8.17812 10.17 8.16684 10.1659C8.0794 10.1271 7.99054 10.0828 7.90028 10.0316C7.89745 10.0288 7.89463 10.0288 7.89181 10.0274C7.75642 9.94989 7.61961 9.85712 7.47857 9.74912C6.31217 8.85743 5.61684 7.42159 5.61684 5.90682V5.65897Z" fill="#F1F1F1"/>
<path d="M13.0605 11.595C12.3864 11.9162 11.7108 12.1613 11.0451 12.326C11.0733 12.5033 11.0888 12.6833 11.0888 12.866C11.0888 14.36 10.1523 15.5757 9 15.5757C7.8477 15.5757 6.90979 14.36 6.90979 12.866C6.90979 12.693 6.9253 12.5227 6.94928 12.3565C6.26665 12.1917 5.58684 11.9411 4.91831 11.6047C3.57843 12.0602 2.625 13.3105 2.625 14.7657V18.6247C2.625 18.7008 2.68847 18.7631 2.76604 18.7631H15.234C15.3115 18.7631 15.375 18.7008 15.375 18.6247V14.7657C15.375 13.2897 14.4145 12.0408 13.0605 11.595Z" fill="#F1F1F1"/>
</g>
<defs>
<clipPath id="clip0_755_417">
<rect width="18" height="18" fill="white" transform="translate(0 0.5)"/>
</clipPath>
</defs>
</svg>
