<svg xmlns="http://www.w3.org/2000/svg" width="18" height="18" viewBox="0 0 18 18" fill="none">
  <path d="M13.4999 3.36005C12.3065 2.16658 10.6878 1.49609 8.99995 1.49609C7.31212 1.49609 5.69342 2.16658 4.49995 3.36005C3.30647 4.55353 2.63599 6.17223 2.63599 7.86005C2.63599 9.54788 3.30647 11.1666 4.49995 12.3601L8.45245 16.3201C8.52217 16.3904 8.60512 16.4461 8.69652 16.4842C8.78791 16.5223 8.88594 16.5419 8.98495 16.5419C9.08396 16.5419 9.18198 16.5223 9.27338 16.4842C9.36477 16.4461 9.44772 16.3904 9.51745 16.3201L13.4999 12.3226C14.6884 11.134 15.3561 9.52209 15.3561 7.8413C15.3561 6.16051 14.6884 4.54856 13.4999 3.36005ZM12.4274 11.2501L8.99995 14.6926L5.57245 11.2501C4.89531 10.5723 4.4343 9.70899 4.24772 8.76927C4.06113 7.82956 4.15734 6.85561 4.52418 5.97057C4.89101 5.08552 5.51201 4.32909 6.30867 3.79691C7.10533 3.26473 8.04189 2.98069 8.99995 2.98069C9.95801 2.98069 10.8946 3.26473 11.6912 3.79691C12.4879 4.32909 13.1089 5.08552 13.4757 5.97057C13.8426 6.85561 13.9388 7.82956 13.7522 8.76927C13.5656 9.70899 13.1046 10.5723 12.4274 11.2501ZM6.74995 5.55755C6.14448 6.16488 5.80449 6.98748 5.80449 7.84505C5.80449 8.70263 6.14448 9.52523 6.74995 10.1326C7.19977 10.5831 7.77264 10.8909 8.39668 11.0171C9.02073 11.1433 9.66816 11.0825 10.2578 10.8422C10.8473 10.6018 11.3528 10.1928 11.7108 9.66624C12.0688 9.13972 12.2633 8.51921 12.2699 7.88256C12.2733 7.45746 12.1914 7.036 12.0291 6.6431C11.8668 6.25019 11.6274 5.89382 11.3249 5.59505C11.0277 5.29099 10.6733 5.04871 10.282 4.88215C9.89077 4.7156 9.47045 4.62806 9.04525 4.62458C8.62004 4.62109 8.19835 4.70173 7.80443 4.86185C7.41051 5.02196 7.05214 5.2584 6.74995 5.55755ZM10.2674 9.06755C9.98323 9.35611 9.60761 9.53698 9.20479 9.57924C8.80198 9.62151 8.397 9.52253 8.05908 9.29925C7.72116 9.07597 7.4713 8.74224 7.3522 8.35512C7.23311 7.968 7.25218 7.55153 7.40617 7.17692C7.56015 6.80231 7.83947 6.49282 8.19639 6.30136C8.5533 6.1099 8.96564 6.04836 9.3629 6.12727C9.76016 6.20617 10.1177 6.42062 10.3743 6.73395C10.631 7.04728 10.7708 7.44003 10.7699 7.84505C10.759 8.30801 10.5648 8.7477 10.2299 9.06755H10.2674Z" fill="white"/>
</svg>