<svg xmlns="http://www.w3.org/2000/svg" width="16" height="24" viewBox="0 0 16 24" fill="none">
  <g clip-path="url(#clip0_755_860)">
    <path d="M13.3771 13.1493L11.3808 11.6239C10.952 11.3778 10.3967 11.6028 10.2701 12.0808L8.6885 17.5286L8.08397 13.8592C8.04179 13.5991 8.10506 13.3391 8.25268 13.1352L8.35812 12.9946C8.66741 12.5729 8.70959 11.9261 8.15427 11.645C7.90121 11.5184 7.59191 11.5184 7.33885 11.645C6.78353 11.9261 6.8257 12.5729 7.135 12.9946L7.24044 13.1352C7.38806 13.3391 7.45132 13.5991 7.40915 13.8592L6.80461 17.5286L5.22299 12.0808C5.09646 11.6028 4.54114 11.3708 4.11234 11.6239L2.11598 13.1493C0.808507 13.9928 0.00012207 15.5533 0.00012207 17.2334L0.39377 22.4984C0.450006 23.2857 1.11077 23.8973 1.89807 23.8973H13.6021C14.3894 23.8973 15.0501 23.2857 15.1064 22.4984L15.5 17.2334C15.493 15.5533 14.6846 13.9928 13.3771 13.1493Z" fill="#F1F1F1"/>
    <path d="M3.07193 6.28856V6.31668C3.04381 9.05816 5.25105 11.2373 7.99253 11.0967C10.4599 10.9702 12.4281 8.9246 12.4281 6.42212V6.28856C12.4281 6.11986 12.4633 5.95115 12.5335 5.7965C12.7655 5.29741 12.885 4.74209 12.7655 4.02508C12.5125 2.55593 11.3034 0.102661 7.7465 0.102661C5.38461 0.102661 4.51296 0.98134 4.25287 1.97249C3.50775 2.12011 2.93837 2.83711 2.73452 4.02508C2.61502 4.74912 2.73452 5.29741 2.96649 5.7965C3.03678 5.95115 3.07193 6.11986 3.07193 6.28856Z" fill="#F1F1F1"/>
  </g>
  <defs>
    <clipPath id="clip0_755_860">
      <rect width="15.4999" height="23.7946" fill="white" transform="translate(0 0.102661)"/>
    </clipPath>
  </defs>
</svg>