<svg width="32" height="32" viewBox="0 0 32 32" fill="none" xmlns="http://www.w3.org/2000/svg">
<rect width="32" height="32" rx="4" fill="#139961"/>
<path d="M27 10.9375C27 8.76625 22.072 7 16 7C9.928 7 5 8.76625 5 10.9375C5 12.9738 9.345 14.6612 14.9 14.8525V19.375H13.085C12.183 19.375 11.38 19.9375 11.039 20.7925L9.4 25H11.6L12.92 21.625H19.08L20.4 25H22.6L20.95 20.7925C20.62 19.9375 19.806 19.375 18.915 19.375H17.1V14.8525C22.655 14.6612 27 12.9738 27 10.9375ZM16 9.25C20.455 9.25 23.414 10.2175 24.492 10.9375C23.414 11.6575 20.455 12.625 16 12.625C11.545 12.625 8.586 11.6575 7.508 10.9375C8.586 10.2175 11.545 9.25 16 9.25Z" fill="#F1F1F1"/>
</svg>
