<svg xmlns="http://www.w3.org/2000/svg" width="24" height="25" viewBox="0 0 24 25" fill="none">
  <path d="M8 9C7.30777 9 6.63108 9.20527 6.0555 9.58986C5.47993 9.97444 5.03133 10.5211 4.76642 11.1606C4.50152 11.8001 4.4322 12.5039 4.56725 13.1828C4.7023 13.8617 5.03564 14.4854 5.52513 14.9749C6.01461 15.4644 6.63825 15.7977 7.31718 15.9327C7.99612 16.0678 8.69985 15.9985 9.33939 15.7336C9.97893 15.4687 10.5256 15.0201 10.9101 14.4445C11.2947 13.8689 11.5 13.1922 11.5 12.5C11.5 11.5717 11.1313 10.6815 10.4749 10.0251C9.8185 9.36875 8.92826 9 8 9ZM8 14C7.70333 14 7.41332 13.912 7.16664 13.7472C6.91997 13.5824 6.72771 13.3481 6.61418 13.074C6.50065 12.7999 6.47094 12.4983 6.52882 12.2074C6.5867 11.9164 6.72956 11.6491 6.93934 11.4393C7.14912 11.2296 7.41639 11.0867 7.70736 11.0288C7.99834 10.9709 8.29994 11.0006 8.57403 11.1142C8.84811 11.2277 9.08238 11.42 9.2472 11.6666C9.41203 11.9133 9.5 12.2033 9.5 12.5C9.5 12.8978 9.34196 13.2794 9.06066 13.5607C8.77936 13.842 8.39782 14 8 14ZM16 5.5H8C6.14348 5.5 4.36301 6.2375 3.05025 7.55025C1.7375 8.86301 1 10.6435 1 12.5C1 14.3565 1.7375 16.137 3.05025 17.4497C4.36301 18.7625 6.14348 19.5 8 19.5H16C17.8565 19.5 19.637 18.7625 20.9497 17.4497C22.2625 16.137 23 14.3565 23 12.5C23 10.6435 22.2625 8.86301 20.9497 7.55025C19.637 6.2375 17.8565 5.5 16 5.5ZM16 17.5H8C6.67392 17.5 5.40215 16.9732 4.46447 16.0355C3.52678 15.0979 3 13.8261 3 12.5C3 11.1739 3.52678 9.90215 4.46447 8.96447C5.40215 8.02678 6.67392 7.5 8 7.5H16C17.3261 7.5 18.5979 8.02678 19.5355 8.96447C20.4732 9.90215 21 11.1739 21 12.5C21 13.8261 20.4732 15.0979 19.5355 16.0355C18.5979 16.9732 17.3261 17.5 16 17.5Z" fill="white"/>
</svg>