<svg width="31" height="30" viewBox="0 0 31 30" fill="none" xmlns="http://www.w3.org/2000/svg">
<ellipse cx="15.653" cy="14.6729" rx="7.67355" ry="7.33644" fill="#F1F1F1"/>
<path d="M11.3048 27.5115L8.87483 23.5987L4.2707 22.6206L4.71833 18.0964L1.58496 14.6728L4.71833 11.2491L4.2707 6.72494L8.87483 5.74675L11.3048 1.83398L15.6531 3.60696L20.0015 1.83398L22.4314 5.74675L27.0356 6.72494L26.5879 11.2491L29.7213 14.6728L26.5879 18.0964L27.0356 22.6206L22.4314 23.5987L20.0015 27.5115L15.6531 25.7385L11.3048 27.5115ZM14.3103 19.0135L21.5362 12.105L19.7457 10.332L14.3103 15.5287L11.5606 12.9609L9.77008 14.6728L14.3103 19.0135Z" fill="#21D188"/>
</svg>
